<svg width="337" height="350" viewBox="0 0 337 350" fill="none" xmlns="http://www.w3.org/2000/svg">
<path fill-rule="evenodd" clip-rule="evenodd" d="M51.7397 33.9578C49.3782 34.6159 47.4489 36.3204 46.5046 38.5826L1.60175 146.162C0.597687 148.568 0.828596 151.312 2.22056 153.516L46.3561 223.397C47.4142 225.073 47.8129 227.081 47.475 229.033L40.9623 266.662C40.0115 272.156 44.8306 276.913 50.3114 275.891L90.0077 268.49C94.4008 267.671 98.613 270.61 99.3611 275.015L106.304 315.903C106.74 318.471 108.4 320.667 110.752 321.787L166.533 348.349C168.725 349.393 171.272 349.385 173.457 348.327L228.204 321.837C230.58 320.687 232.236 318.44 232.629 315.83L238.768 275.164C239.442 270.697 243.678 267.674 248.121 268.489L289.372 276.051C294.658 277.021 299.377 272.605 298.761 267.266L294.299 228.589C294.105 226.906 294.449 225.206 295.283 223.732L335.163 153.247C336.327 151.189 336.522 148.721 335.693 146.506L295.433 38.8317C294.533 36.4254 292.532 34.5976 290.055 33.9183L172.133 1.5848C170.737 1.20211 169.264 1.20519 167.87 1.5937L51.7397 33.9578ZM73.2532 157.948C71.7998 156.691 69.9428 156 68.0216 156H58.4888C53.2093 156 49.3775 161.024 50.7736 166.115L63.9394 214.132C64.6069 216.566 66.384 218.543 68.7339 219.464L111.125 236.088C114.086 237.249 117.454 236.546 119.703 234.297L136.585 217.415C140.429 213.571 137.707 207 132.271 207V207C130.806 207 129.39 206.473 128.282 205.515L73.2532 157.948ZM228.979 235.351C225.993 236.94 222.331 236.479 219.832 234.2L204.701 220.404C199.499 215.661 202.854 207 209.894 207V207C211.887 207 213.802 206.228 215.238 204.846L263.677 158.235C265.167 156.801 267.155 156 269.224 156H278.084C283.491 156 287.341 161.253 285.713 166.409L271.985 209.882C271.354 211.88 269.963 213.551 268.113 214.536L228.979 235.351ZM156.678 257.185C154.225 254.434 153.968 250.364 156.056 247.327L162.506 237.946C165.657 233.362 172.41 233.315 175.626 237.855L182.263 247.224C184.443 250.301 184.177 254.484 181.625 257.261L174.979 264.493C171.777 267.977 166.268 267.937 163.118 264.405L156.678 257.185Z" fill="white"/>
<path d="M181.625 257.261L181.257 256.923L181.625 257.261ZM182.263 247.224L182.671 246.935L182.263 247.224ZM163.118 264.405L163.491 264.072L163.118 264.405ZM174.979 264.493L174.611 264.155L174.979 264.493ZM156.056 247.327L156.468 247.611L156.056 247.327ZM156.678 257.185L156.305 257.517L156.678 257.185ZM162.506 237.946L162.094 237.663L162.506 237.946ZM175.626 237.855L175.218 238.144L175.626 237.855ZM215.238 204.846L214.892 204.486L215.238 204.846ZM263.677 158.235L263.33 157.875L263.677 158.235ZM268.113 214.536L268.348 214.977L268.113 214.536ZM271.985 209.882L271.508 209.731L271.985 209.882ZM219.832 234.2L220.169 233.831L219.832 234.2ZM228.979 235.351L229.214 235.793L228.979 235.351ZM204.701 220.404L204.364 220.773L204.701 220.404ZM68.7339 219.464L68.5514 219.93L68.7339 219.464ZM63.9394 214.132L63.4572 214.264L63.9394 214.132ZM119.703 234.297L119.349 233.944L119.703 234.297ZM111.125 236.088L110.943 236.554L111.125 236.088ZM136.585 217.415L136.232 217.061L136.585 217.415ZM128.282 205.515L128.609 205.136L128.282 205.515ZM73.2532 157.948L73.5802 157.569L73.2532 157.948ZM50.7736 166.115L50.2914 166.248L50.7736 166.115ZM172.133 1.5848L172.001 2.067L172.133 1.5848ZM167.87 1.5937L168.004 2.07535L167.87 1.5937ZM295.433 38.8317L295.901 38.6565L295.433 38.8317ZM290.055 33.9183L290.187 33.4361L290.055 33.9183ZM335.163 153.247L334.728 153.001L335.163 153.247ZM335.693 146.506L335.225 146.681L335.693 146.506ZM294.299 228.589L293.802 228.646L294.299 228.589ZM295.283 223.732L294.848 223.486L295.283 223.732ZM289.372 276.051L289.281 276.543L289.372 276.051ZM298.761 267.266L298.265 267.323L298.761 267.266ZM238.768 275.164L238.273 275.089L238.768 275.164ZM228.204 321.837L228.421 322.287L228.204 321.837ZM232.629 315.83L232.135 315.755L232.629 315.83ZM166.533 348.349L166.748 347.898L166.533 348.349ZM173.457 348.327L173.239 347.877L173.457 348.327ZM106.304 315.903L106.797 315.819L106.304 315.903ZM110.752 321.787L110.537 322.238L110.752 321.787ZM90.0077 268.49L89.9161 267.999L90.0077 268.49ZM99.3611 275.015L99.854 274.932L99.3611 275.015ZM40.9623 266.662L40.4696 266.577L40.9623 266.662ZM50.3114 275.891L50.2197 275.4L50.3114 275.891ZM46.3561 223.397L46.7788 223.13L46.3561 223.397ZM47.475 229.033L46.9823 228.948L47.475 229.033ZM1.60175 146.162L1.14033 145.97L1.60175 146.162ZM2.22056 153.516L2.6433 153.249L2.22056 153.516ZM51.7397 33.9578L51.8739 34.4394L51.7397 33.9578ZM46.0432 38.39L1.14033 145.97L2.06317 146.355L46.9661 38.7752L46.0432 38.39ZM1.79781 153.783L45.9333 223.664L46.7788 223.13L2.6433 153.249L1.79781 153.783ZM46.9823 228.948L40.4696 266.577L41.455 266.748L47.9677 229.119L46.9823 228.948ZM50.403 276.383L90.0994 268.982L89.9161 267.999L50.2197 275.4L50.403 276.383ZM98.8681 275.099L105.811 315.987L106.797 315.819L99.854 274.932L98.8681 275.099ZM110.537 322.238L166.318 348.8L166.748 347.898L110.967 321.335L110.537 322.238ZM173.675 348.777L228.421 322.287L227.986 321.387L173.239 347.877L173.675 348.777ZM233.124 315.904L239.262 275.238L238.273 275.089L232.135 315.755L233.124 315.904ZM248.031 268.981L289.281 276.543L289.462 275.56L248.211 267.997L248.031 268.981ZM299.258 267.208L294.795 228.531L293.802 228.646L298.265 267.323L299.258 267.208ZM295.718 223.978L335.598 153.493L334.728 153.001L294.848 223.486L295.718 223.978ZM336.162 146.331L295.901 38.6565L294.964 39.0068L335.225 146.681L336.162 146.331ZM290.187 33.4361L172.265 1.1026L172.001 2.067L289.923 34.4005L290.187 33.4361ZM167.735 1.11205L51.6055 33.4761L51.8739 34.4394L168.004 2.07535L167.735 1.11205ZM58.4888 156.5H68.0216V155.5H58.4888V156.5ZM72.9263 158.326L127.955 205.893L128.609 205.136L73.5802 157.569L72.9263 158.326ZM136.232 217.061L119.349 233.944L120.056 234.651L136.939 217.768L136.232 217.061ZM111.308 235.623L68.9165 218.999L68.5514 219.93L110.943 236.554L111.308 235.623ZM64.4216 214L51.2558 165.983L50.2914 166.248L63.4572 214.264L64.4216 214ZM204.364 220.773L219.495 234.57L220.169 233.831L205.038 220.034L204.364 220.773ZM229.214 235.793L268.348 214.977L267.878 214.094L228.744 234.91L229.214 235.793ZM272.462 210.032L286.19 166.56L285.236 166.258L271.508 209.731L272.462 210.032ZM278.084 155.5H269.224V156.5H278.084V155.5ZM263.33 157.875L214.892 204.486L215.585 205.207L264.024 158.596L263.33 157.875ZM162.094 237.663L155.644 247.044L156.468 247.611L162.918 238.23L162.094 237.663ZM156.305 257.517L162.745 264.738L163.491 264.072L157.051 256.852L156.305 257.517ZM175.347 264.832L181.993 257.599L181.257 256.923L174.611 264.155L175.347 264.832ZM182.671 246.935L176.034 237.566L175.218 238.144L181.855 247.513L182.671 246.935ZM181.993 257.599C184.705 254.649 184.987 250.205 182.671 246.935L181.855 247.513C183.898 250.398 183.649 254.319 181.257 256.923L181.993 257.599ZM162.745 264.738C166.091 268.49 171.946 268.534 175.347 264.832L174.611 264.155C171.609 267.421 166.444 267.383 163.491 264.072L162.745 264.738ZM155.644 247.044C153.426 250.271 153.699 254.595 156.305 257.517L157.051 256.852C154.752 254.273 154.511 250.458 156.468 247.611L155.644 247.044ZM162.918 238.23C165.872 233.932 172.203 233.887 175.218 238.144L176.034 237.566C172.617 232.742 165.442 232.792 162.094 237.663L162.918 238.23ZM214.892 204.486C213.549 205.778 211.757 206.5 209.894 206.5V207.5C212.016 207.5 214.056 206.678 215.585 205.207L214.892 204.486ZM269.224 155.5C267.026 155.5 264.914 156.351 263.33 157.875L264.024 158.596C265.421 157.251 267.285 156.5 269.224 156.5V155.5ZM286.19 166.56C287.92 161.081 283.829 155.5 278.084 155.5V156.5C283.153 156.5 286.763 161.425 285.236 166.258L286.19 166.56ZM268.348 214.977C270.314 213.931 271.791 212.156 272.462 210.032L271.508 209.731C270.916 211.605 269.613 213.171 267.878 214.094L268.348 214.977ZM219.495 234.57C222.151 236.991 226.042 237.48 229.214 235.793L228.744 234.91C225.945 236.399 222.512 235.967 220.169 233.831L219.495 234.57ZM205.038 220.034C200.173 215.599 203.311 207.5 209.894 207.5V206.5C202.397 206.5 198.824 215.722 204.364 220.773L205.038 220.034ZM68.9165 218.999C66.7135 218.135 65.0474 216.282 64.4216 214L63.4572 214.264C64.1664 216.851 66.0546 218.951 68.5514 219.93L68.9165 218.999ZM119.349 233.944C117.241 236.052 114.084 236.711 111.308 235.623L110.943 236.554C114.089 237.788 117.667 237.04 120.056 234.651L119.349 233.944ZM132.271 207.5C137.261 207.5 139.76 213.533 136.232 217.061L136.939 217.768C141.097 213.61 138.152 206.5 132.271 206.5V207.5ZM127.955 205.893C129.154 206.93 130.686 207.5 132.271 207.5V206.5C130.926 206.5 129.626 206.016 128.609 205.136L127.955 205.893ZM68.0216 156.5C69.8227 156.5 71.5637 157.148 72.9263 158.326L73.5802 157.569C72.0359 156.235 70.0629 155.5 68.0216 155.5V156.5ZM58.4888 155.5C52.8793 155.5 48.8081 160.838 50.2914 166.248L51.2558 165.983C49.947 161.21 53.5393 156.5 58.4888 156.5V155.5ZM172.265 1.1026C170.782 0.695988 169.217 0.699258 167.735 1.11205L168.004 2.07535C169.311 1.71111 170.692 1.70823 172.001 2.067L172.265 1.1026ZM295.901 38.6565C294.945 36.0999 292.819 34.1578 290.187 33.4361L289.923 34.4005C292.245 35.0373 294.121 36.7509 294.964 39.0068L295.901 38.6565ZM335.598 153.493C336.835 151.306 337.042 148.684 336.162 146.331L335.225 146.681C336.002 148.757 335.819 151.071 334.728 153.001L335.598 153.493ZM294.795 228.531C294.613 226.954 294.937 225.36 295.718 223.978L294.848 223.486C293.962 225.052 293.596 226.859 293.802 228.646L294.795 228.531ZM289.281 276.543C294.898 277.573 299.913 272.881 299.258 267.208L298.265 267.323C298.842 272.329 294.418 276.468 289.462 275.56L289.281 276.543ZM239.262 275.238C239.894 271.051 243.865 268.217 248.031 268.981L248.211 267.997C243.49 267.132 238.99 270.343 238.273 275.089L239.262 275.238ZM228.421 322.287C230.946 321.066 232.705 318.677 233.124 315.904L232.135 315.755C231.766 318.202 230.213 320.309 227.986 321.387L228.421 322.287ZM166.318 348.8C168.647 349.909 171.353 349.901 173.675 348.777L173.239 347.877C171.19 348.869 168.803 348.876 166.748 347.898L166.318 348.8ZM105.811 315.987C106.275 318.716 108.038 321.048 110.537 322.238L110.967 321.335C108.762 320.285 107.206 318.227 106.797 315.819L105.811 315.987ZM90.0994 268.982C94.2178 268.214 98.1668 270.969 98.8681 275.099L99.854 274.932C99.0591 270.251 94.5837 267.128 89.9161 267.999L90.0994 268.982ZM40.4696 266.577C39.4594 272.414 44.5797 277.468 50.403 276.383L50.2197 275.4C45.0815 276.358 40.5636 271.898 41.455 266.748L40.4696 266.577ZM45.9333 223.664C46.9253 225.235 47.2991 227.118 46.9823 228.948L47.9677 229.119C48.3267 227.044 47.9031 224.91 46.7788 223.13L45.9333 223.664ZM1.14033 145.97C0.0735135 148.526 0.318854 151.441 1.79781 153.783L2.6433 153.249C1.33834 151.183 1.12186 148.61 2.06317 146.355L1.14033 145.97ZM46.9661 38.7752C47.8513 36.6544 49.6601 35.0564 51.8739 34.4394L51.6055 33.4761C49.0964 34.1754 47.0465 35.9864 46.0432 38.39L46.9661 38.7752Z" fill="white"/>
</svg>
