<?xml version="1.0" standalone="no"?>
<!DOCTYPE svg PUBLIC "-//W3C//DTD SVG 20010904//EN"
 "http://www.w3.org/TR/2001/REC-SVG-20010904/DTD/svg10.dtd">
<svg version="1.0" xmlns="http://www.w3.org/2000/svg"
 width="776.000000pt" height="776.000000pt" viewBox="0 0 776.000000 776.000000"
 preserveAspectRatio="xMidYMid meet">
<metadata>
Created by potrace 1.14, written by Peter Selinger 2001-2017
</metadata>
<g transform="translate(0.000000,776.000000) scale(0.100000,-0.100000)"
fill="#000000" stroke="none">
<path d="M4660 7737 c0 -2 53 -57 118 -123 104 -106 146 -152 217 -235 61 -73
82 -98 100 -123 11 -15 32 -42 47 -59 15 -18 28 -35 28 -38 0 -3 10 -17 21
-30 34 -38 181 -264 246 -379 52 -90 152 -290 207 -411 19 -44 117 -308 121
-329 2 -8 4 -16 5 -17 2 -2 3 -6 4 -10 1 -5 8 -26 15 -48 16 -54 59 -214 65
-245 2 -14 7 -32 10 -40 3 -8 7 -28 10 -45 3 -16 7 -39 9 -50 11 -50 31 -177
42 -265 3 -30 8 -68 10 -85 23 -166 23 -703 0 -825 -2 -14 -7 -48 -9 -75 -4
-47 -12 -98 -22 -155 -2 -14 -7 -41 -9 -60 -3 -19 -8 -46 -12 -60 -3 -14 -7
-32 -8 -40 0 -8 -4 -24 -8 -35 -3 -11 -9 -36 -12 -55 -3 -19 -13 -62 -21 -95
-9 -33 -17 -67 -19 -75 -8 -38 -105 -340 -124 -385 -19 -44 -33 -80 -32 -82 4
-18 -238 -515 -260 -533 -3 -3 -14 -21 -24 -40 -30 -59 -198 -310 -280 -415
-194 -253 -416 -480 -650 -667 -55 -44 -107 -86 -116 -93 -9 -7 -50 -36 -90
-64 -41 -28 -78 -54 -84 -59 -5 -4 -39 -26 -75 -47 -36 -22 -66 -43 -68 -47
-2 -5 -7 -8 -12 -8 -4 0 -50 -24 -101 -53 -87 -49 -268 -141 -279 -142 -3 0
-21 -8 -40 -17 -45 -21 -270 -110 -277 -109 -2 0 -18 -6 -38 -15 -19 -8 -37
-14 -40 -14 -3 0 -42 -11 -88 -24 -83 -25 -257 -70 -312 -80 -111 -21 -266
-47 -305 -51 -199 -22 -296 -28 -505 -28 -177 0 -329 6 -420 17 -16 2 -61 7
-100 11 -38 4 -79 9 -90 11 -11 3 -36 7 -55 10 -19 3 -73 12 -120 20 -47 8
-94 17 -105 19 -27 4 -151 32 -200 45 -22 6 -51 13 -64 16 -13 3 -63 16 -110
30 -47 14 -93 27 -101 29 -8 2 -48 15 -87 28 -40 14 -71 22 -68 18 2 -4 68
-50 147 -102 79 -52 144 -97 146 -101 2 -5 8 -8 13 -8 5 0 40 -20 79 -45 39
-25 73 -45 76 -45 3 0 18 -8 32 -19 31 -21 151 -87 267 -145 44 -23 82 -44 83
-48 2 -5 9 -8 16 -8 7 0 44 -15 82 -33 38 -19 98 -46 134 -62 36 -15 79 -34
96 -41 64 -28 333 -124 429 -153 177 -54 396 -106 530 -126 17 -3 41 -7 55
-10 29 -6 62 -11 145 -20 33 -4 69 -9 80 -11 128 -24 634 -24 850 1 76 8 130
16 145 20 8 2 38 6 65 10 61 8 260 49 335 70 30 9 64 18 75 20 39 9 330 108
356 121 15 7 29 11 31 8 3 -2 11 2 18 11 7 8 19 15 26 15 17 0 78 27 185 81
42 21 79 36 81 33 3 -2 11 2 18 11 7 8 16 15 20 15 7 0 142 74 195 107 11 7
28 16 38 19 9 3 17 10 17 15 0 5 5 9 10 9 22 0 349 231 358 252 2 4 8 8 14 8
6 0 18 8 27 18 9 10 30 28 46 40 112 86 505 476 505 502 0 4 10 16 23 27 12
11 29 30 37 42 8 13 25 35 38 49 13 15 51 65 85 112 33 47 66 88 72 92 6 5 6
8 0 8 -6 0 -6 3 1 8 28 19 179 271 274 457 66 130 178 381 184 415 1 3 6 19
13 35 20 54 26 70 29 80 1 6 10 32 19 59 9 26 18 56 20 65 2 9 8 28 14 44 6
15 13 38 15 50 3 12 17 67 31 122 14 55 28 118 31 140 3 21 8 43 11 48 3 4 7
28 9 53 2 25 6 49 8 53 3 4 8 33 11 65 4 31 8 66 10 77 5 26 14 112 21 209 12
155 5 520 -12 655 -2 22 -7 58 -9 80 -3 22 -7 49 -9 61 -3 11 -8 45 -12 75 -3
30 -8 58 -11 62 -2 4 -6 22 -8 40 -5 38 -29 141 -59 247 -8 30 -18 69 -22 85
-4 17 -10 35 -15 40 -4 6 -7 12 -7 15 2 13 -98 296 -112 315 -3 6 -17 38 -30
73 -14 34 -28 62 -32 62 -5 0 -8 6 -8 13 0 16 -114 235 -167 322 -7 11 -16 28
-19 38 -3 9 -10 17 -14 17 -5 0 -12 10 -16 23 -4 12 -9 24 -13 27 -10 8 -51
69 -51 75 0 3 -19 32 -42 63 -23 31 -60 82 -82 112 -49 67 -153 197 -181 226
-11 12 -47 52 -80 89 -136 155 -341 349 -516 490 -41 33 -76 62 -79 65 -3 3
-32 25 -65 50 -33 25 -64 49 -70 53 -15 11 -169 120 -187 132 -16 11 -71 47
-154 101 -28 19 -56 34 -63 34 -6 0 -11 5 -11 10 0 6 -7 10 -15 10 -8 0 -15 4
-15 9 0 5 -8 11 -17 15 -19 6 -51 24 -120 69 -24 15 -46 27 -50 27 -5 0 -25
11 -46 25 -20 14 -37 23 -37 20 0 -4 -13 3 -29 14 -16 12 -34 21 -39 21 -6 0
-12 3 -14 8 -3 7 -78 44 -78 39z"/>
</g>
</svg>
